<mxfile host="app.diagrams.net" modified="2024-01-29T08:30:46.603Z" agent="Mozilla/5.0 (Macintosh; Intel Mac OS X 10_15_7) AppleWebKit/537.36 (KHTML, like Gecko) Chrome/120.0.0.0 Safari/537.36" etag="9DLYghWQjnxhcf0jk_9d" version="23.0.2" type="github">
  <diagram name="第 1 页" id="oIgSJ-jCkEDPL_mwqBG6">
    <mxGraphModel dx="1314" dy="865" grid="0" gridSize="10" guides="1" tooltips="1" connect="1" arrows="1" fold="1" page="0" pageScale="1" pageWidth="1169" pageHeight="827" math="0" shadow="0">
      <root>
        <mxCell id="0" />
        <mxCell id="1" parent="0" />
        <mxCell id="Z4AFo1DgdPZZFTQi7bNu-21" style="edgeStyle=orthogonalEdgeStyle;rounded=0;orthogonalLoop=1;jettySize=auto;html=1;strokeWidth=2;" edge="1" parent="1">
          <mxGeometry relative="1" as="geometry">
            <mxPoint x="547" y="373.5" as="targetPoint" />
            <mxPoint x="463" y="373.5" as="sourcePoint" />
          </mxGeometry>
        </mxCell>
        <mxCell id="Z4AFo1DgdPZZFTQi7bNu-3" value="&lt;font style=&quot;font-size: 24px;&quot;&gt;前端展示&lt;/font&gt;" style="rounded=0;whiteSpace=wrap;html=1;" vertex="1" parent="1">
          <mxGeometry x="360" y="263" width="103" height="229" as="geometry" />
        </mxCell>
        <mxCell id="Z4AFo1DgdPZZFTQi7bNu-22" style="edgeStyle=orthogonalEdgeStyle;rounded=0;orthogonalLoop=1;jettySize=auto;html=1;entryX=0.5;entryY=1;entryDx=0;entryDy=0;strokeWidth=2;" edge="1" parent="1" source="Z4AFo1DgdPZZFTQi7bNu-5" target="Z4AFo1DgdPZZFTQi7bNu-6">
          <mxGeometry relative="1" as="geometry" />
        </mxCell>
        <mxCell id="Z4AFo1DgdPZZFTQi7bNu-23" style="edgeStyle=orthogonalEdgeStyle;rounded=0;orthogonalLoop=1;jettySize=auto;html=1;entryX=0.5;entryY=1;entryDx=0;entryDy=0;strokeWidth=2;" edge="1" parent="1" source="Z4AFo1DgdPZZFTQi7bNu-5" target="Z4AFo1DgdPZZFTQi7bNu-11">
          <mxGeometry relative="1" as="geometry" />
        </mxCell>
        <mxCell id="Z4AFo1DgdPZZFTQi7bNu-24" style="edgeStyle=orthogonalEdgeStyle;rounded=0;orthogonalLoop=1;jettySize=auto;html=1;entryX=0.5;entryY=1;entryDx=0;entryDy=0;strokeWidth=2;" edge="1" parent="1" source="Z4AFo1DgdPZZFTQi7bNu-5" target="Z4AFo1DgdPZZFTQi7bNu-14">
          <mxGeometry relative="1" as="geometry" />
        </mxCell>
        <mxCell id="Z4AFo1DgdPZZFTQi7bNu-25" style="edgeStyle=orthogonalEdgeStyle;rounded=0;orthogonalLoop=1;jettySize=auto;html=1;entryX=0.5;entryY=1;entryDx=0;entryDy=0;strokeWidth=2;" edge="1" parent="1" source="Z4AFo1DgdPZZFTQi7bNu-5" target="Z4AFo1DgdPZZFTQi7bNu-17">
          <mxGeometry relative="1" as="geometry" />
        </mxCell>
        <mxCell id="Z4AFo1DgdPZZFTQi7bNu-5" value="&lt;font style=&quot;font-size: 24px;&quot;&gt;服务端API调用&lt;/font&gt;" style="rounded=0;whiteSpace=wrap;html=1;" vertex="1" parent="1">
          <mxGeometry x="551" y="263" width="103" height="229" as="geometry" />
        </mxCell>
        <mxCell id="Z4AFo1DgdPZZFTQi7bNu-8" value="" style="group" vertex="1" connectable="0" parent="1">
          <mxGeometry x="759" y="107" width="195.6400000000001" height="89" as="geometry" />
        </mxCell>
        <mxCell id="Z4AFo1DgdPZZFTQi7bNu-6" value="" style="rounded=0;whiteSpace=wrap;html=1;rotation=90;" vertex="1" parent="Z4AFo1DgdPZZFTQi7bNu-8">
          <mxGeometry x="53.32000000000005" y="-53.31999999999999" width="89" height="195.64" as="geometry" />
        </mxCell>
        <mxCell id="Z4AFo1DgdPZZFTQi7bNu-7" value="&lt;font style=&quot;font-size: 24px;&quot;&gt;图片采集模块&lt;/font&gt;" style="text;html=1;strokeColor=none;fillColor=none;align=center;verticalAlign=middle;whiteSpace=wrap;rounded=0;" vertex="1" parent="Z4AFo1DgdPZZFTQi7bNu-8">
          <mxGeometry x="10.82000000000005" y="25.5" width="174" height="38" as="geometry" />
        </mxCell>
        <mxCell id="Z4AFo1DgdPZZFTQi7bNu-9" value="" style="group;strokeWidth=2;" vertex="1" connectable="0" parent="1">
          <mxGeometry x="199" y="313" width="77.32999999999998" height="157" as="geometry" />
        </mxCell>
        <mxCell id="Z4AFo1DgdPZZFTQi7bNu-20" style="edgeStyle=orthogonalEdgeStyle;rounded=0;orthogonalLoop=1;jettySize=auto;html=1;" edge="1" parent="Z4AFo1DgdPZZFTQi7bNu-9" source="Z4AFo1DgdPZZFTQi7bNu-1">
          <mxGeometry relative="1" as="geometry">
            <mxPoint x="158" y="58" as="targetPoint" />
          </mxGeometry>
        </mxCell>
        <mxCell id="Z4AFo1DgdPZZFTQi7bNu-1" value="" style="shape=actor;whiteSpace=wrap;html=1;" vertex="1" parent="Z4AFo1DgdPZZFTQi7bNu-9">
          <mxGeometry width="77.33" height="116" as="geometry" />
        </mxCell>
        <mxCell id="Z4AFo1DgdPZZFTQi7bNu-2" value="&lt;font style=&quot;font-size: 24px;&quot;&gt;用户&lt;/font&gt;" style="text;html=1;strokeColor=none;fillColor=none;align=center;verticalAlign=middle;whiteSpace=wrap;rounded=0;" vertex="1" parent="Z4AFo1DgdPZZFTQi7bNu-9">
          <mxGeometry x="8.659999999999997" y="127" width="60" height="30" as="geometry" />
        </mxCell>
        <mxCell id="Z4AFo1DgdPZZFTQi7bNu-10" value="" style="group" vertex="1" connectable="0" parent="1">
          <mxGeometry x="759" y="256" width="195.6400000000001" height="89" as="geometry" />
        </mxCell>
        <mxCell id="Z4AFo1DgdPZZFTQi7bNu-11" value="" style="rounded=0;whiteSpace=wrap;html=1;rotation=90;" vertex="1" parent="Z4AFo1DgdPZZFTQi7bNu-10">
          <mxGeometry x="53.32000000000005" y="-53.31999999999999" width="89" height="195.64" as="geometry" />
        </mxCell>
        <mxCell id="Z4AFo1DgdPZZFTQi7bNu-12" value="&lt;span style=&quot;font-size: 24px;&quot;&gt;模型训练模块&lt;/span&gt;" style="text;html=1;strokeColor=none;fillColor=none;align=center;verticalAlign=middle;whiteSpace=wrap;rounded=0;" vertex="1" parent="Z4AFo1DgdPZZFTQi7bNu-10">
          <mxGeometry x="10.82000000000005" y="25.5" width="174" height="38" as="geometry" />
        </mxCell>
        <mxCell id="Z4AFo1DgdPZZFTQi7bNu-13" value="" style="group" vertex="1" connectable="0" parent="1">
          <mxGeometry x="759" y="405" width="195.6400000000001" height="89" as="geometry" />
        </mxCell>
        <mxCell id="Z4AFo1DgdPZZFTQi7bNu-14" value="" style="rounded=0;whiteSpace=wrap;html=1;rotation=90;" vertex="1" parent="Z4AFo1DgdPZZFTQi7bNu-13">
          <mxGeometry x="53.32000000000005" y="-53.31999999999999" width="89" height="195.64" as="geometry" />
        </mxCell>
        <mxCell id="Z4AFo1DgdPZZFTQi7bNu-15" value="&lt;font style=&quot;font-size: 24px;&quot;&gt;异常检测模块&lt;/font&gt;" style="text;html=1;strokeColor=none;fillColor=none;align=center;verticalAlign=middle;whiteSpace=wrap;rounded=0;" vertex="1" parent="Z4AFo1DgdPZZFTQi7bNu-13">
          <mxGeometry x="10.82000000000005" y="25.5" width="174" height="38" as="geometry" />
        </mxCell>
        <mxCell id="Z4AFo1DgdPZZFTQi7bNu-16" value="" style="group" vertex="1" connectable="0" parent="1">
          <mxGeometry x="759" y="554" width="195.6400000000001" height="89" as="geometry" />
        </mxCell>
        <mxCell id="Z4AFo1DgdPZZFTQi7bNu-17" value="" style="rounded=0;whiteSpace=wrap;html=1;rotation=90;" vertex="1" parent="Z4AFo1DgdPZZFTQi7bNu-16">
          <mxGeometry x="53.32000000000005" y="-53.31999999999999" width="89" height="195.64" as="geometry" />
        </mxCell>
        <mxCell id="Z4AFo1DgdPZZFTQi7bNu-18" value="&lt;font style=&quot;font-size: 24px;&quot;&gt;异常分析模块&lt;/font&gt;" style="text;html=1;strokeColor=none;fillColor=none;align=center;verticalAlign=middle;whiteSpace=wrap;rounded=0;" vertex="1" parent="Z4AFo1DgdPZZFTQi7bNu-16">
          <mxGeometry x="10.82000000000005" y="25.5" width="174" height="38" as="geometry" />
        </mxCell>
      </root>
    </mxGraphModel>
  </diagram>
</mxfile>
